<?xml version="1.0" encoding="utf-8"?>
<svg id="master-artboard" viewBox="0 0 1400 980" version="1.1" xmlns="http://www.w3.org/2000/svg" x="0px" y="0px" style="enable-background:new 0 0 1400 980;" width="1400px" height="980px"><defs><style id="ee-google-fonts">@import url(https://fonts.googleapis.com/css?family=Rubik:300,300italic,400,400italic,500,500italic,700,700italic,900,900italic);</style><linearGradient id="af83dc26-9572-4816-b7a1-1af4f72ff554-156" x1="678.2" y1="821.79" x2="678.2" y2="493.4" gradientTransform="translate(-20.24 29.65) rotate(-2.31)" gradientUnits="userSpaceOnUse" style="user-select: auto;"><stop offset="0" stop-color="gray" stop-opacity="0.25" style="user-select: auto;"/><stop offset="0.54" stop-color="gray" stop-opacity="0.12" style="user-select: auto;"/><stop offset="1" stop-color="gray" stop-opacity="0.1" style="user-select: auto;"/></linearGradient></defs><rect id="ee-background" x="0" y="0" width="1400" height="980" style="fill: white; fill-opacity: 1; pointer-events: none;"/>








































<g transform="matrix(1.347439513293363, 0, 0, 1.347439513293363, 128.68748925356658, 0)"><path d="M224.12631,86.34729H600.44467a48.17928,48.17928,0,0,1,48.125,48.12512V340.3482a48.17923,48.17923,0,0,1-48.125,48.12506H224.12631a48.17923,48.17923,0,0,1-48.125-48.12506V134.47241A48.17928,48.17928,0,0,1,224.12631,86.34729Z" transform="matrix(1, 0, 0, 1, -98.87935622912141, 35.98408848610795)" fill="#f2f2f2" style="user-select: auto;"/><path d="M224.12582,100.20148H600.44467a34.30948,34.30948,0,0,1,34.271,34.27093V340.3482a34.30947,34.30947,0,0,1-34.271,34.27088H224.12582a34.30936,34.30936,0,0,1-34.2705-34.27088V134.47241A34.30936,34.30936,0,0,1,224.12582,100.20148Z" transform="matrix(1, 0, 0, 1, -98.87935622912141, 35.98408848610795)" fill="#fff" style="user-select: auto;"/><path d="M227.79792,462.18379a8.63,8.63,0,0,1-3.30688-.66895,8.3678,8.3678,0,0,1-5.24707-7.85254V382.49238L314.12653,379.3l-80.37231,80.37256A8.38269,8.38269,0,0,1,227.79792,462.18379Z" transform="matrix(1, 0, 0, 1, -98.87935622912141, 35.98408848610795)" fill="#f2f2f2" style="user-select: auto;"/><path d="M 94.339447 65.062988 H 377.311966 A 20.513741 20.513741 0 0 1 397.825706 85.576729 V 85.576767 A 20.513741 20.513741 0 0 1 377.311966 106.090508 H 94.339447 A 20.513741 20.513741 0 0 1 73.825706 85.576767 V 85.576729 A 20.513741 20.513741 0 0 1 94.339447 65.062988 Z" fill="#f2f2f2" style="user-select: auto;" transform="matrix(1, 0, 0, 1, 77.12195602673785, 122.33137852517044)"/><path d="M 94.79792 130.549225 H 377.770439 A 20.513741 20.513741 0 0 1 398.28418 151.062965 V 151.063004 A 20.513741 20.513741 0 0 1 377.770439 171.576744 H 94.79792 A 20.513741 20.513741 0 0 1 74.28418 151.063004 V 151.062965 A 20.513741 20.513741 0 0 1 94.79792 130.549225 Z" fill="#f2f2f2" style="user-select: auto;" transform="matrix(1, 0, 0, 1, 77.12195602673785, 122.33137852517044)"/><path d="M 95.256393 196.035477 H 378.228912 A 20.513741 20.513741 0 0 1 398.742653 216.549217 V 216.549255 A 20.513741 20.513741 0 0 1 378.228912 237.062996 H 95.256393 A 20.513741 20.513741 0 0 1 74.742653 216.549255 V 216.549217 A 20.513741 20.513741 0 0 1 95.256393 196.035477 Z" fill="#f2f2f2" style="user-select: auto;" transform="matrix(1, 0, 0, 1, 77.12195602673785, 122.33137852517044)"/><path d="M818.36162,191.34729H442.04326a48.17928,48.17928,0,0,0-48.125,48.12512V445.3482a48.17923,48.17923,0,0,0,48.125,48.12506H818.36162a48.17923,48.17923,0,0,0,48.125-48.12506V239.47241A48.17928,48.17928,0,0,0,818.36162,191.34729Z" transform="matrix(1, 0, 0, 1, -98.87935622912141, 35.98408848610795)" fill="#e6e6e6" style="user-select: auto;"/><path d="M818.36211,205.20148H442.04326a34.30948,34.30948,0,0,0-34.271,34.27093V445.3482a34.30947,34.30947,0,0,0,34.271,34.27088H818.36211a34.30937,34.30937,0,0,0,34.27051-34.27088V239.47241A34.30937,34.30937,0,0,0,818.36211,205.20148Z" transform="matrix(1, 0, 0, 1, -98.87935622912141, 35.98408848610795)" fill="#fff" style="user-select: auto;"/><path d="M789.73371,564.67256,709.3614,484.3l94.88257,3.19238V558.6623a8.36781,8.36781,0,0,1-5.24707,7.85254,8.63008,8.63008,0,0,1-3.30689.66895A8.38269,8.38269,0,0,1,789.73371,564.67256Z" transform="matrix(1, 0, 0, 1, -98.87935622912141, 35.98408848610795)" fill="#e6e6e6" style="user-select: auto;"/><path d="M 397.201141 256.062988 A 26 26 0 0 1 371.201141 282.062988 A 26 26 0 0 1 345.201141 256.062988 A 26 26 0 0 1 371.201141 230.062988 A 26 26 0 0 1 397.201141 256.062988 Z" fill="#ffce63" style="user-select: auto;" transform="matrix(1, 0, 0, 1, 77.12195602673785, 122.33137852517044)"/><path d="M 480.201141 256.062988 A 26 26 0 0 1 454.201141 282.062988 A 26 26 0 0 1 428.201141 256.062988 A 26 26 0 0 1 454.201141 230.062988 A 26 26 0 0 1 480.201141 256.062988 Z" fill="#ffce63" style="user-select: auto;" transform="matrix(1, 0, 0, 1, 77.12195602673785, 122.33137852517044)"/><path d="M 563.201111 256.062988 A 26 26 0 0 1 537.201111 282.062988 A 26 26 0 0 1 511.201111 256.062988 A 26 26 0 0 1 537.201111 230.062988 A 26 26 0 0 1 563.201111 256.062988 Z" fill="#ffce63" style="user-select: auto;" transform="matrix(1, 0, 0, 1, 77.12195602673785, 122.33137852517044)"/></g></svg>