<?xml version="1.0" encoding="utf-8"?>
<svg id="master-artboard" viewBox="0 0 1400 980" version="1.1" xmlns="http://www.w3.org/2000/svg" x="0px" y="0px" style="enable-background:new 0 0 1400 980;" width="1400px" height="980px"><defs><style id="ee-google-fonts">@import url(https://fonts.googleapis.com/css?family=Rubik:300,300italic,400,400italic,500,500italic,700,700italic,900,900italic);</style><linearGradient id="af83dc26-9572-4816-b7a1-1af4f72ff554-156" x1="678.2" y1="821.79" x2="678.2" y2="493.4" gradientTransform="translate(-20.24 29.65) rotate(-2.31)" gradientUnits="userSpaceOnUse" style="user-select: auto;"><stop offset="0" stop-color="gray" stop-opacity="0.25" style="user-select: auto;"/><stop offset="0.54" stop-color="gray" stop-opacity="0.12" style="user-select: auto;"/><stop offset="1" stop-color="gray" stop-opacity="0.1" style="user-select: auto;"/><stop offset="0.60523" style="stop-color: rgb(0, 0, 0);"/></linearGradient><linearGradient id="gradient-1" x1="678.2" y1="821.79" x2="678.2" y2="493.4" gradientTransform="translate(-20.24 29.65) rotate(-2.31)" gradientUnits="userSpaceOnUse" style="user-select: auto;"><stop offset="0" stop-color="gray" stop-opacity="0.25" style="user-select: auto;"/><stop offset="0.54" stop-color="gray" stop-opacity="0.12" style="user-select: auto;"/><stop offset="1" stop-color="gray" stop-opacity="0.1" style="user-select: auto;"/></linearGradient></defs><rect id="ee-background" x="0" y="0" width="1400" height="980" style="fill: white; fill-opacity: 1; pointer-events: none;"/>








































<g transform="matrix(1.347439513293363, 0, 0, 1.347439513293363, 128.68748925356658, 0)"/><g transform="matrix(1.2471208868300034, 0, 0, 1.2471208868300034, 62.28474057705387, -0.000013669397958437912)"><title style="user-select: auto;">bug fixing</title><path d="M 893.630005 660.880005 A 425 33 0 0 1 468.630005 693.880005 A 425 33 0 0 1 43.630005 660.880005 A 425 33 0 0 1 468.630005 627.880005 A 425 33 0 0 1 893.630005 660.880005 Z" fill="#ffce63" opacity="0.1" style="user-select: auto;"/><g opacity="0.1" style="user-select: auto;"><path d="M933.7,529.93c-2.54-7.71-12.84-11.26-23-7.92a24.76,24.76,0,0,0-4.23,1.83c-.65-.18-1.32-.34-2-.46a22.42,22.42,0,0,0,.63-6.79A24.6,24.6,0,0,0,916,495.12a24.63,24.63,0,0,0,10.86-21.47,23.76,23.76,0,0,0,8.23-9.32c4.9-9.7,2.87-20.6-4.54-24.35s-17.4,1.08-22.3,10.78a23.69,23.69,0,0,0-2.63,12.15,24.63,24.63,0,0,0-10.86,21.47,24.63,24.63,0,0,0-10.86,21.47A24.64,24.64,0,0,0,873,527.33a23.76,23.76,0,0,0-8.23,9.32,25.46,25.46,0,0,0-2.08,5.74,21.18,21.18,0,0,0-4.44-4.73,25.38,25.38,0,0,0-1-4.5c-3.34-10.17-12.3-16.37-20-13.83s-11.26,12.83-7.92,23a23.07,23.07,0,0,0,7.56,11.08,25.38,25.38,0,0,0,1,4.5c1.94,5.9,5.77,10.46,10.15,12.75a23.23,23.23,0,0,0-.83,3.9,25.29,25.29,0,0,0-7.54,14.91,25.27,25.27,0,0,0-7.54,14.92,24.63,24.63,0,0,0-5,6.81c-4.91,9.7-2.88,20.61,4.53,24.35s17.4-1.07,22.31-10.78a24.62,24.62,0,0,0,2.5-8.09,25.29,25.29,0,0,0,7.54-14.91,25.27,25.27,0,0,0,7.54-14.92A25.21,25.21,0,0,0,879,571.94,25.21,25.21,0,0,0,886.56,557a24.11,24.11,0,0,0,3.39-4,23.46,23.46,0,0,0,12.27-.77,24.76,24.76,0,0,0,4.23-1.83,23.2,23.2,0,0,0,13.42-.48C930,546.61,936.23,537.65,933.7,529.93Z" transform="translate(-88.65 -57.09)" fill="#3f3d56" style="user-select: auto;"/><g opacity="0.1" style="user-select: auto;"><path d="M915.77,499.53a21.5,21.5,0,0,1-3.44,2.75,23,23,0,0,1-1.11,8.43,26.18,26.18,0,0,0,2.1-3.43A24.64,24.64,0,0,0,915.77,499.53Z" transform="translate(-88.65 -57.09)" style="user-select: auto;"/><path d="M926.63,478.06a21.5,21.5,0,0,1-3.44,2.75,23,23,0,0,1-1.11,8.43,25.65,25.65,0,0,0,2.1-3.44A24.85,24.85,0,0,0,926.63,478.06Z" transform="translate(-88.65 -57.09)" style="user-select: auto;"/><path d="M902,470.07a21.91,21.91,0,0,1,.17-4.41,24.93,24.93,0,0,0-4.78,6.57,25.63,25.63,0,0,0-1.52,3.73A22.75,22.75,0,0,1,902,470.07Z" transform="translate(-88.65 -57.09)" style="user-select: auto;"/><path d="M833.07,600a23.59,23.59,0,0,1,2.95-3.38,22.92,22.92,0,0,1,.87-4,25.09,25.09,0,0,0-2.29,3.71A25.59,25.59,0,0,0,833.07,600Z" transform="translate(-88.65 -57.09)" style="user-select: auto;"/><path d="M840.61,585.1a23.59,23.59,0,0,1,2.95-3.38,23,23,0,0,1,.83-3.9l0,0a25.68,25.68,0,0,0-2.2,3.59A26.76,26.76,0,0,0,840.61,585.1Z" transform="translate(-88.65 -57.09)" style="user-select: auto;"/><path d="M904.9,521a20.82,20.82,0,0,1-3.43,2.74,22.45,22.45,0,0,1-.63,6.79,18.75,18.75,0,0,1,2,.46,24.76,24.76,0,0,1,4.23-1.83c10.18-3.34,20.47.21,23,7.92a11.68,11.68,0,0,1,.32,6c3.35-3.94,4.74-8.74,3.3-13.14-2.54-7.71-12.84-11.26-23-7.92a24.76,24.76,0,0,0-4.23,1.83c-.65-.18-1.32-.34-2-.46C904.65,522.59,904.79,521.8,904.9,521Z" transform="translate(-88.65 -57.09)" style="user-select: auto;"/><path d="M829.35,607.49a25.09,25.09,0,0,0-2.29,3.71,26.56,26.56,0,0,0-1.54,3.74,24.48,24.48,0,0,1,3-3.4A22.92,22.92,0,0,1,829.35,607.49Z" transform="translate(-88.65 -57.09)" style="user-select: auto;"/><path d="M891.09,491.54a22,22,0,0,1,.17-4.41,24.93,24.93,0,0,0-4.78,6.57,25.63,25.63,0,0,0-1.52,3.73A22.75,22.75,0,0,1,891.09,491.54Z" transform="translate(-88.65 -57.09)" style="user-select: auto;"/><path d="M875.4,579.1a24.29,24.29,0,0,1-1,4.38,26.67,26.67,0,0,0,2.09-3.44,25.49,25.49,0,0,0,1.63-4A24.23,24.23,0,0,1,875.4,579.1Z" transform="translate(-88.65 -57.09)" style="user-select: auto;"/><path d="M860.32,608.92a24.15,24.15,0,0,1-1,4.38,25.65,25.65,0,0,0,2.1-3.44,26.47,26.47,0,0,0,1.63-4A23.57,23.57,0,0,1,860.32,608.92Z" transform="translate(-88.65 -57.09)" style="user-select: auto;"/><path d="M867.86,594a24.11,24.11,0,0,1-1,4.38A26.67,26.67,0,0,0,869,595a25.49,25.49,0,0,0,1.63-4A24.23,24.23,0,0,1,867.86,594Z" transform="translate(-88.65 -57.09)" style="user-select: auto;"/><path d="M882.94,564.19a24,24,0,0,1-1,4.37,25.89,25.89,0,0,0,2.09-3.43,25.48,25.48,0,0,0,1.64-4.07A23.22,23.22,0,0,1,882.94,564.19Z" transform="translate(-88.65 -57.09)" style="user-select: auto;"/><path d="M833.57,526.48c7.72-2.53,16.68,3.66,20,13.83a25.68,25.68,0,0,1,1,4.51,21.18,21.18,0,0,1,4.44,4.73,25.53,25.53,0,0,1,2.08-5.75c.35-.68.73-1.33,1.12-2a21.07,21.07,0,0,0-4-4.18,25.38,25.38,0,0,0-1-4.5c-3.34-10.17-12.3-16.37-20-13.83-4.4,1.44-7.44,5.41-8.62,10.43A11.69,11.69,0,0,1,833.57,526.48Z" transform="translate(-88.65 -57.09)" style="user-select: auto;"/><path d="M869.37,534.48a21.85,21.85,0,0,1,.18-4.4,24.73,24.73,0,0,0-4.79,6.57,25.07,25.07,0,0,0-1.52,3.72A23,23,0,0,1,869.37,534.48Z" transform="translate(-88.65 -57.09)" style="user-select: auto;"/><path d="M880.23,513a21.85,21.85,0,0,1,.18-4.4,24.52,24.52,0,0,0-4.79,6.56,25.63,25.63,0,0,0-1.52,3.73A22.75,22.75,0,0,1,880.23,513Z" transform="translate(-88.65 -57.09)" style="user-select: auto;"/><path d="M852.78,623.83a24.25,24.25,0,0,1-1,4.39,25.73,25.73,0,0,0,3.73-7.49A23.57,23.57,0,0,1,852.78,623.83Z" transform="translate(-88.65 -57.09)" style="user-select: auto;"/></g><path d="M948.52,430.71a23.68,23.68,0,0,0,8.23-9.32c4.91-9.7,2.88-20.61-4.53-24.36s-17.4,1.08-22.31,10.79A23.68,23.68,0,0,0,927.29,420a24.63,24.63,0,0,0-10.86,21.47,23.61,23.61,0,0,0-8.23,9.32,24.69,24.69,0,0,0-1.51,3.69,20.85,20.85,0,0,1,10.77-8A12.24,12.24,0,0,0,933,454.32a20.85,20.85,0,0,1,0,13.41,25.48,25.48,0,0,0,2.08-3.4,23.68,23.68,0,0,0,2.62-12.15,24.57,24.57,0,0,0,10.86-21.47Z" transform="translate(-88.65 -57.09)" fill="#3f3d56" style="user-select: auto;"/><path d="M1067.88,293.07a72,72,0,0,0,8.72-4.83l-32.33-23.62,38,19.57a72.13,72.13,0,0,0,27-50.31l-64.58.66,64.72-10.82A72,72,0,1,0,966.83,242a72.09,72.09,0,0,0-13.26,8l33.75,46.93L946.8,255.85a72.08,72.08,0,0,0-20.17,65.61,72,72,0,1,0,101.05,51.1,72,72,0,0,0,40.2-79.49Z" transform="translate(-88.65 -57.09)" fill="#ffce63" style="user-select: auto;"/><path d="M933,274.75a71.77,71.77,0,0,0-6.35,46.71,72,72,0,1,0,101.05,51.1C1041.83,366,936.62,267.54,933,274.75Z" transform="translate(-88.65 -57.09)" opacity="0.1" style="user-select: auto;"/><path d="M 936.17999 102.720001 A 10.69 10.69 0 0 1 925.48999 113.410001 A 10.69 10.69 0 0 1 914.799991 102.720001 A 10.69 10.69 0 0 1 925.48999 92.030002 A 10.69 10.69 0 0 1 936.17999 102.720001 Z" fill="#ffce63" style="user-select: auto;"/><path d="M 998.619992 109.580002 A 10.69 10.69 0 0 1 987.929993 120.270001 A 10.69 10.69 0 0 1 977.239993 109.580002 A 10.69 10.69 0 0 1 987.929993 98.890002 A 10.69 10.69 0 0 1 998.619992 109.580002 Z" fill="#ffce63" style="user-select: auto;"/><path d="M 1022.700009 205.639999 A 10.69 10.69 0 0 1 1012.01001 216.329999 A 10.69 10.69 0 0 1 1001.32001 205.639999 A 10.69 10.69 0 0 1 1012.01001 194.95 A 10.69 10.69 0 0 1 1022.700009 205.639999 Z" fill="#ffce63" style="user-select: auto;"/><path d="M 990.200009 253.610001 A 10.69 10.69 0 0 1 979.51001 264.3 A 10.69 10.69 0 0 1 968.82001 253.610001 A 10.69 10.69 0 0 1 979.51001 242.920001 A 10.69 10.69 0 0 1 990.200009 253.610001 Z" fill="#ffce63" style="user-select: auto;"/><path d="M 945.799985 353.23999 A 10.69 10.69 0 0 1 935.109985 363.92999 A 10.69 10.69 0 0 1 924.419986 353.23999 A 10.69 10.69 0 0 1 935.109985 342.549991 A 10.69 10.69 0 0 1 945.799985 353.23999 Z" fill="#ffce63" style="user-select: auto;"/><path d="M 945.799985 353.23999 A 10.69 10.69 0 0 1 935.109985 363.92999 A 10.69 10.69 0 0 1 924.419986 353.23999 A 10.69 10.69 0 0 1 935.109985 342.549991 A 10.69 10.69 0 0 1 945.799985 353.23999 Z" opacity="0.1" style="user-select: auto;"/><path d="M 847.080014 240.399994 A 10.69 10.69 0 0 1 836.390015 251.089993 A 10.69 10.69 0 0 1 825.700015 240.399994 A 10.69 10.69 0 0 1 836.390015 229.709994 A 10.69 10.69 0 0 1 847.080014 240.399994 Z" fill="#ffce63" style="user-select: auto;"/><path d="M 847.080014 240.399994 A 10.69 10.69 0 0 1 836.390015 251.089993 A 10.69 10.69 0 0 1 825.700015 240.399994 A 10.69 10.69 0 0 1 836.390015 229.709994 A 10.69 10.69 0 0 1 847.080014 240.399994 Z" opacity="0.1" style="user-select: auto;"/><path d="M913.64,473.32c-7.11-3.59-9.26-13.76-5.11-23.14-.22.38-.43.77-.63,1.18-4.91,9.7-2.88,20.6,4.53,24.35s17.4-1.08,22.3-10.78c.21-.4.39-.81.57-1.21C930.21,472.63,920.74,476.92,913.64,473.32Z" transform="translate(-88.65 -57.09)" opacity="0.1" style="user-select: auto;"/><path d="M903.08,494.2c-7.1-3.59-9.26-13.76-5.1-23.15-.22.39-.44.78-.64,1.18-4.91,9.7-2.88,20.61,4.53,24.35s17.4-1.07,22.31-10.78c.2-.4.39-.8.57-1.21C919.65,493.5,910.19,497.79,903.08,494.2Z" transform="translate(-88.65 -57.09)" opacity="0.1" style="user-select: auto;"/><path d="M892.52,515.07c-7.1-3.59-9.26-13.76-5.1-23.14-.22.38-.44.77-.64,1.18-4.91,9.7-2.87,20.6,4.54,24.35s17.39-1.08,22.3-10.78c.2-.4.39-.81.57-1.21C909.1,514.38,899.63,518.67,892.52,515.07Z" transform="translate(-88.65 -57.09)" opacity="0.1" style="user-select: auto;"/><path d="M882,536c-7.11-3.59-9.26-13.76-5.11-23.14-.22.38-.43.77-.64,1.17-4.9,9.7-2.87,20.61,4.54,24.36s17.4-1.08,22.3-10.79c.21-.4.39-.8.57-1.21C898.54,535.25,889.07,539.54,882,536Z" transform="translate(-88.65 -57.09)" opacity="0.1" style="user-select: auto;"/><path d="M871.41,556.82c-7.11-3.59-9.26-13.76-5.11-23.14-.22.38-.43.77-.63,1.18-4.91,9.7-2.88,20.6,4.53,24.35s17.4-1.08,22.31-10.78c.2-.4.39-.81.57-1.21C888,556.13,878.51,560.42,871.41,556.82Z" transform="translate(-88.65 -57.09)" opacity="0.1" style="user-select: auto;"/><path d="M860.85,577.7c-7.1-3.59-9.26-13.76-5.1-23.14-.22.38-.44.77-.64,1.17-4.91,9.7-2.88,20.61,4.54,24.36S877,579,882,569.3c.2-.4.39-.8.57-1.21C877.42,577,868,581.29,860.85,577.7Z" transform="translate(-88.65 -57.09)" opacity="0.1" style="user-select: auto;"/><path d="M850.29,598.57c-7.1-3.59-9.26-13.76-5.1-23.14-.22.39-.43.77-.64,1.18-4.9,9.7-2.87,20.6,4.54,24.35s17.4-1.08,22.3-10.78c.21-.4.39-.81.57-1.21C866.87,597.88,857.4,602.17,850.29,598.57Z" transform="translate(-88.65 -57.09)" opacity="0.1" style="user-select: auto;"/><path d="M839.74,619.45c-7.11-3.59-9.26-13.76-5.11-23.14q-.33.57-.63,1.17c-4.91,9.7-2.88,20.61,4.53,24.36s17.4-1.08,22.31-10.79c.2-.4.38-.8.56-1.21C856.31,618.75,846.84,623,839.74,619.45Z" transform="translate(-88.65 -57.09)" opacity="0.1" style="user-select: auto;"/><path d="M832.8,633.17c-7.1-3.6-9.26-13.76-5.1-23.15-.22.39-.44.78-.64,1.18-4.91,9.7-2.88,20.61,4.53,24.35s17.4-1.07,22.31-10.78c.2-.4.39-.8.57-1.21C849.37,632.47,839.9,636.76,832.8,633.17Z" transform="translate(-88.65 -57.09)" opacity="0.1" style="user-select: auto;"/><path d="M1023.59,540.26a37.4,37.4,0,0,0,2-9.79,5.34,5.34,0,1,0-.81-10.62,37.31,37.31,0,0,0-19.64-25.31,5.34,5.34,0,1,0-9.54-4.82,5,5,0,0,0-.48,1.43A37.49,37.49,0,0,0,962.25,501a37.64,37.64,0,0,0-9.82-.29l-4.33,19.71-.26-19a37.42,37.42,0,1,0,20,72,5.28,5.28,0,0,0,2.25,2.16,5.34,5.34,0,0,0,7.32-6.88,37.35,37.35,0,0,0,4.8-3.92,37.45,37.45,0,0,0,39.31-19.83l-20.15-3.39Z" transform="translate(-88.65 -57.09)" fill="#ffce63" style="user-select: auto;"/><g opacity="0.1" style="user-select: auto;"><path d="M992.46,549.83c-7.44-9.82-12-21.45-17.25-32.61a136.38,136.38,0,0,0-7.07-13.36l-3.94-4.59c-.66.56-1.32,1.14-2,1.75a37.64,37.64,0,0,0-9.82-.29l-4.33,19.71-.26-19a37.42,37.42,0,1,0,20,72,5.28,5.28,0,0,0,2.25,2.16,5.34,5.34,0,0,0,7.32-6.88,37.35,37.35,0,0,0,4.8-3.92,37.49,37.49,0,0,0,22.44-3.32A52.71,52.71,0,0,1,992.46,549.83Z" transform="translate(-88.65 -57.09)" style="user-select: auto;"/></g><path d="M860.71,507.63a5.34,5.34,0,0,0-4.78-7.75,37.37,37.37,0,0,0-11.7-20.83,37.52,37.52,0,0,0,1.1-11.7L825.68,464l19.08-1.2a38,38,0,0,0-1.41-5.28,5.46,5.46,0,0,0,1.76-2,5.35,5.35,0,0,0-6.59-7.44A37.42,37.42,0,0,0,771.73,479a5.25,5.25,0,0,0-2.66,2.5,5.34,5.34,0,0,0,6.75,7.37,37.53,37.53,0,0,0,7.09,8.65,37.4,37.4,0,0,0,1.74,23.76L811,514.44,787.5,526.8a37.42,37.42,0,0,0,68.91-16.26A5.33,5.33,0,0,0,860.71,507.63Z" transform="translate(-88.65 -57.09)" fill="#ffce63" style="user-select: auto;"/><path d="M860.71,507.63a5.34,5.34,0,0,0-4.78-7.75,37.37,37.37,0,0,0-11.7-20.83c.16-.63.3-1.25.42-1.88a13.18,13.18,0,0,0-1.93,1.71c-3.55,3.89-5.37,9.12-8.88,13.05-4.14,4.64-10.34,7.06-16.53,7.71s-12.42-.3-18.53-1.49c-5.06-1-10.19-2.16-15.32-1.67-.5,0-1,.11-1.46.19.3.29.6.58.91.86a37.4,37.4,0,0,0,1.74,23.76L811,514.44,787.5,526.8a37.42,37.42,0,0,0,68.91-16.26A5.33,5.33,0,0,0,860.71,507.63Z" transform="translate(-88.65 -57.09)" opacity="0.1" style="user-select: auto;"/></g><g opacity="0.1" style="user-select: auto;"><path d="M178.14,568.33c1.28-3.89,6.47-5.68,11.59-4a12.78,12.78,0,0,1,2.13.92c.33-.09.67-.17,1-.23a11.26,11.26,0,0,1-.32-3.42,12.46,12.46,0,0,1-5.47-10.82,11.92,11.92,0,0,1-4.14-4.69,12,12,0,0,1-1.33-6.12,12,12,0,0,1-4.14-4.7C175,530.39,176,524.9,179.75,523s8.77.55,11.24,5.43a12,12,0,0,1,1.32,6.13,12.37,12.37,0,0,1,5.47,10.81,12.4,12.4,0,0,1,5.47,10.82A12.37,12.37,0,0,1,208.72,567a12,12,0,0,1,4.15,4.7,12.66,12.66,0,0,1,1,2.9,10.66,10.66,0,0,1,2.23-2.39,12.58,12.58,0,0,1,.52-2.27c1.69-5.12,6.2-8.24,10.09-7s5.67,6.47,4,11.59a11.67,11.67,0,0,1-3.81,5.59,12.67,12.67,0,0,1-.52,2.26,11.1,11.1,0,0,1-5.11,6.42,12.84,12.84,0,0,1,.42,2,12.57,12.57,0,0,1,2.53,3.43,12.32,12.32,0,0,1,1.26,4.08,12.55,12.55,0,0,1,2.54,3.43,12.39,12.39,0,0,1,1.26,4.08,12.45,12.45,0,0,1,2.54,3.44c2.47,4.88,1.45,10.38-2.28,12.26s-8.77-.54-11.24-5.43a12.48,12.48,0,0,1-1.26-4.08,12.7,12.7,0,0,1-3.8-7.51,12.7,12.7,0,0,1-3.8-7.51,12.6,12.6,0,0,1-2.54-3.43,12.73,12.73,0,0,1-1.26-4.08,12.57,12.57,0,0,1-2.53-3.43,12.32,12.32,0,0,1-1.26-4.08,11.63,11.63,0,0,1-1.71-2,11.9,11.9,0,0,1-6.18-.38,13.29,13.29,0,0,1-2.14-.93,11.61,11.61,0,0,1-6.75-.24C180,576.73,176.87,572.22,178.14,568.33Z" transform="translate(-88.65 -57.09)" fill="#3f3d56" style="user-select: auto;"/><g opacity="0.1" style="user-select: auto;"><path d="M187.17,553a10.72,10.72,0,0,0,1.74,1.39,11.31,11.31,0,0,0,.56,4.24,11.93,11.93,0,0,1-1.06-1.73A12.46,12.46,0,0,1,187.17,553Z" transform="translate(-88.65 -57.09)" style="user-select: auto;"/><path d="M181.7,542.2a11.21,11.21,0,0,0,1.74,1.38,11.39,11.39,0,0,0,.56,4.25,12.7,12.7,0,0,1-2.3-5.63Z" transform="translate(-88.65 -57.09)" style="user-select: auto;"/><path d="M194.13,538.17a11.11,11.11,0,0,0-.08-2.22,12.66,12.66,0,0,1,2.41,3.31,13,13,0,0,1,.76,1.88A11.42,11.42,0,0,0,194.13,538.17Z" transform="translate(-88.65 -57.09)" style="user-select: auto;"/><path d="M228.83,603.63a11.65,11.65,0,0,0-1.48-1.7,12.4,12.4,0,0,0-.44-2,13.23,13.23,0,0,1,1.15,1.86A13,13,0,0,1,228.83,603.63Z" transform="translate(-88.65 -57.09)" style="user-select: auto;"/><path d="M225,596.12a11.65,11.65,0,0,0-1.48-1.7,11.75,11.75,0,0,0-.42-2h0a12.67,12.67,0,0,1,1.88,3.68Z" transform="translate(-88.65 -57.09)" style="user-select: auto;"/><path d="M192.65,563.84a10.11,10.11,0,0,0,1.73,1.37,10.9,10.9,0,0,0,.32,3.42,10,10,0,0,0-1,.23,13.26,13.26,0,0,0-2.14-.92c-5.12-1.68-10.31.11-11.58,4a5.82,5.82,0,0,0-.17,3,6.93,6.93,0,0,1-1.66-6.61c1.28-3.89,6.47-5.68,11.59-4a12.78,12.78,0,0,1,2.13.92c.33-.09.67-.17,1-.23A10.32,10.32,0,0,1,192.65,563.84Z" transform="translate(-88.65 -57.09)" style="user-select: auto;"/><path d="M230.71,607.4a12.79,12.79,0,0,1,1.15,1.87,13,13,0,0,1,.77,1.88,11.74,11.74,0,0,0-1.48-1.71A12.4,12.4,0,0,0,230.71,607.4Z" transform="translate(-88.65 -57.09)" style="user-select: auto;"/><path d="M199.6,549a11.08,11.08,0,0,0-.08-2.22,12.49,12.49,0,0,1,2.41,3.31,12.87,12.87,0,0,1,.76,1.87A11.38,11.38,0,0,0,199.6,549Z" transform="translate(-88.65 -57.09)" style="user-select: auto;"/><path d="M207.51,593.1a11.94,11.94,0,0,0,.49,2.2,12.63,12.63,0,0,1-1.88-3.77A11.72,11.72,0,0,0,207.51,593.1Z" transform="translate(-88.65 -57.09)" style="user-select: auto;"/><path d="M215.1,608.12a12.66,12.66,0,0,0,.5,2.2,11.93,11.93,0,0,1-1.06-1.73,12.88,12.88,0,0,1-.82-2A13,13,0,0,0,215.1,608.12Z" transform="translate(-88.65 -57.09)" style="user-select: auto;"/><path d="M211.31,600.61a11.94,11.94,0,0,0,.49,2.2,12.88,12.88,0,0,1-1.06-1.73,12.6,12.6,0,0,1-.82-2A11.72,11.72,0,0,0,211.31,600.61Z" transform="translate(-88.65 -57.09)" style="user-select: auto;"/><path d="M203.71,585.58a11.86,11.86,0,0,0,.49,2.21,12.44,12.44,0,0,1-1-1.73,12.23,12.23,0,0,1-.83-2A11.13,11.13,0,0,0,203.71,585.58Z" transform="translate(-88.65 -57.09)" style="user-select: auto;"/><path d="M228.58,566.59c-3.89-1.28-8.4,1.84-10.08,7a12.58,12.58,0,0,0-.52,2.27,10.63,10.63,0,0,0-2.24,2.38,12.83,12.83,0,0,0-1.05-2.9c-.17-.34-.36-.67-.56-1a10.63,10.63,0,0,1,2-2.1,12.58,12.58,0,0,1,.52-2.27c1.69-5.12,6.2-8.24,10.09-7a6.93,6.93,0,0,1,4.34,5.26A5.93,5.93,0,0,0,228.58,566.59Z" transform="translate(-88.65 -57.09)" style="user-select: auto;"/><path d="M210.54,570.62a11.11,11.11,0,0,0-.08-2.22,12.49,12.49,0,0,1,2.41,3.31,13,13,0,0,1,.76,1.88A11.28,11.28,0,0,0,210.54,570.62Z" transform="translate(-88.65 -57.09)" style="user-select: auto;"/><path d="M205.07,559.8a11.13,11.13,0,0,0-.08-2.22,12.83,12.83,0,0,1,2.41,3.31,13,13,0,0,1,.76,1.88A11.42,11.42,0,0,0,205.07,559.8Z" transform="translate(-88.65 -57.09)" style="user-select: auto;"/><path d="M218.9,615.63a11.9,11.9,0,0,0,.5,2.21,12.61,12.61,0,0,1-1.06-1.74,12.88,12.88,0,0,1-.82-2A13,13,0,0,0,218.9,615.63Z" transform="translate(-88.65 -57.09)" style="user-select: auto;"/></g><path d="M170.67,518.34a11.92,11.92,0,0,1-4.14-4.69c-2.47-4.89-1.45-10.38,2.28-12.27s8.77.54,11.24,5.43a11.93,11.93,0,0,1,1.32,6.12,12.4,12.4,0,0,1,5.47,10.82,12,12,0,0,1,4.15,4.69,13.23,13.23,0,0,1,.76,1.86,10.57,10.57,0,0,0-5.43-4,6.16,6.16,0,0,1-7.83,4,10.52,10.52,0,0,0,0,6.75,13.19,13.19,0,0,1-1-1.71,12,12,0,0,1-1.33-6.12,12.43,12.43,0,0,1-5.47-10.82Z" transform="translate(-88.65 -57.09)" fill="#3f3d56" style="user-select: auto;"/><path d="M110.55,449a36.81,36.81,0,0,1-4.39-2.43l16.28-11.9-19.14,9.85a36.34,36.34,0,0,1-13.59-25.34l32.54.34-32.61-5.46a36.29,36.29,0,1,1,71.81,9.2,36.73,36.73,0,0,1,6.68,4l-17,23.64,20.41-20.68a36.32,36.32,0,0,1,10.16,33.05,36.29,36.29,0,1,1-50.9,25.74,36.28,36.28,0,0,1-20.25-40Z" transform="translate(-88.65 -57.09)" fill="#ffce63" style="user-select: auto;"/><path d="M178.5,439.78a36.12,36.12,0,0,1,3.2,23.53,36.29,36.29,0,1,1-50.9,25.74C123.67,485.74,176.67,436.15,178.5,439.78Z" transform="translate(-88.65 -57.09)" opacity="0.1" style="user-select: auto;"/><path d="M 54.360001 324.779999 A 5.39 5.39 0 0 1 48.970001 330.169999 A 5.39 5.39 0 0 1 43.580001 324.779999 A 5.39 5.39 0 0 1 48.970001 319.389999 A 5.39 5.39 0 0 1 54.360001 324.779999 Z" fill="#ffce63" style="user-select: auto;"/><path d="M 22.9 328.23999 A 5.39 5.39 0 0 1 17.51 333.62999 A 5.39 5.39 0 0 1 12.12 328.23999 A 5.39 5.39 0 0 1 17.51 322.84999 A 5.39 5.39 0 0 1 22.9 328.23999 Z" fill="#ffce63" style="user-select: auto;"/><path d="M 10.78 376.630005 A 5.39 5.39 0 0 1 5.39 382.020005 A 5.39 5.39 0 0 1 0 376.630005 A 5.39 5.39 0 0 1 5.39 371.240005 A 5.39 5.39 0 0 1 10.78 376.630005 Z" fill="#ffce63" style="user-select: auto;"/><path d="M 27.15 400.799988 A 5.39 5.39 0 0 1 21.76 406.189988 A 5.39 5.39 0 0 1 16.37 400.799988 A 5.39 5.39 0 0 1 21.76 395.409988 A 5.39 5.39 0 0 1 27.15 400.799988 Z" fill="#ffce63" style="user-select: auto;"/><path d="M 49.509999 450.98999 A 5.39 5.39 0 0 1 44.119999 456.37999 A 5.39 5.39 0 0 1 38.729999 450.98999 A 5.39 5.39 0 0 1 44.119999 445.59999 A 5.39 5.39 0 0 1 49.509999 450.98999 Z" fill="#ffce63" style="user-select: auto;"/><path d="M 49.509999 450.98999 A 5.39 5.39 0 0 1 44.119999 456.37999 A 5.39 5.39 0 0 1 38.729999 450.98999 A 5.39 5.39 0 0 1 44.119999 445.59999 A 5.39 5.39 0 0 1 49.509999 450.98999 Z" opacity="0.1" style="user-select: auto;"/><path d="M 99.239998 394.140015 A 5.39 5.39 0 0 1 93.849998 399.530015 A 5.39 5.39 0 0 1 88.459999 394.140015 A 5.39 5.39 0 0 1 93.849998 388.750015 A 5.39 5.39 0 0 1 99.239998 394.140015 Z" fill="#ffce63" style="user-select: auto;"/><path d="M 99.239998 394.140015 A 5.39 5.39 0 0 1 93.849998 399.530015 A 5.39 5.39 0 0 1 88.459999 394.140015 A 5.39 5.39 0 0 1 93.849998 388.750015 A 5.39 5.39 0 0 1 99.239998 394.140015 Z" opacity="0.1" style="user-select: auto;"/><path d="M188.25,539.81c3.58-1.81,4.66-6.93,2.57-11.66.11.2.22.39.32.59,2.47,4.89,1.45,10.38-2.29,12.27s-8.76-.54-11.23-5.43c-.1-.2-.2-.4-.29-.61C179.9,539.46,184.67,541.62,188.25,539.81Z" transform="translate(-88.65 -57.09)" opacity="0.1" style="user-select: auto;"/><path d="M193.56,550.33c3.58-1.81,4.67-6.94,2.58-11.66.11.19.22.39.32.59,2.47,4.89,1.45,10.38-2.29,12.27s-8.76-.54-11.23-5.43c-.11-.2-.2-.41-.29-.61C185.22,550,190,552.14,193.56,550.33Z" transform="translate(-88.65 -57.09)" opacity="0.1" style="user-select: auto;"/><path d="M198.88,560.84c3.58-1.81,4.67-6.93,2.57-11.66.12.2.22.39.33.6,2.47,4.88,1.44,10.38-2.29,12.26s-8.76-.54-11.23-5.43c-.11-.2-.2-.4-.29-.61C190.53,560.49,195.3,562.65,198.88,560.84Z" transform="translate(-88.65 -57.09)" opacity="0.1" style="user-select: auto;"/><path d="M204.2,571.36c3.58-1.81,4.67-6.93,2.57-11.66.11.19.22.39.32.59,2.48,4.89,1.45,10.38-2.28,12.27s-8.77-.54-11.24-5.43c-.1-.2-.19-.41-.28-.61C195.85,571,200.62,573.17,204.2,571.36Z" transform="translate(-88.65 -57.09)" opacity="0.1" style="user-select: auto;"/><path d="M209.52,581.87c3.58-1.81,4.66-6.93,2.57-11.65.11.19.22.39.32.59,2.47,4.89,1.45,10.38-2.28,12.27s-8.77-.55-11.24-5.43c-.1-.21-.19-.41-.29-.61C201.17,581.52,205.94,583.68,209.52,581.87Z" transform="translate(-88.65 -57.09)" opacity="0.1" style="user-select: auto;"/><path d="M214.84,592.39c3.58-1.81,4.66-6.93,2.57-11.66.11.2.22.39.32.59,2.47,4.89,1.45,10.38-2.28,12.27s-8.77-.54-11.24-5.43c-.1-.2-.2-.4-.29-.61C206.49,592,211.26,594.2,214.84,592.39Z" transform="translate(-88.65 -57.09)" opacity="0.1" style="user-select: auto;"/><path d="M220.16,602.91c3.57-1.81,4.66-6.94,2.57-11.66.11.19.22.39.32.59,2.47,4.89,1.45,10.38-2.29,12.27s-8.76-.55-11.23-5.43c-.1-.21-.2-.41-.29-.61C211.81,602.55,216.58,604.72,220.16,602.91Z" transform="translate(-88.65 -57.09)" opacity="0.1" style="user-select: auto;"/><path d="M225.47,613.42c3.58-1.81,4.67-6.93,2.57-11.66.12.2.22.39.33.6,2.47,4.88,1.44,10.38-2.29,12.26s-8.76-.54-11.23-5.43c-.11-.2-.2-.4-.29-.61C217.13,613.07,221.89,615.23,225.47,613.42Z" transform="translate(-88.65 -57.09)" opacity="0.1" style="user-select: auto;"/><path d="M229,620.33c3.58-1.81,4.66-6.93,2.57-11.66.11.2.22.39.32.6,2.47,4.88,1.45,10.38-2.28,12.26s-8.77-.54-11.24-5.43c-.1-.2-.2-.4-.29-.61C220.62,620,225.39,622.14,229,620.33Z" transform="translate(-88.65 -57.09)" opacity="0.1" style="user-select: auto;"/><path d="M132.86,573.53a18.57,18.57,0,0,1-1-4.93,2.69,2.69,0,1,1,.41-5.35,18.82,18.82,0,0,1,9.89-12.75,2.69,2.69,0,1,1,4.81-2.43,2.44,2.44,0,0,1,.24.72,18.92,18.92,0,0,1,16.56,5,18.68,18.68,0,0,1,5-.14l2.18,9.92L171,554a18.85,18.85,0,1,1-10.08,36.29,2.76,2.76,0,0,1-1.13,1.09,2.7,2.7,0,0,1-3.7-3.47,18.84,18.84,0,0,1-2.41-2,18.87,18.87,0,0,1-19.8-10l10.15-1.71Z" transform="translate(-88.65 -57.09)" fill="#ffce63" style="user-select: auto;"/><g opacity="0.1" style="user-select: auto;"><path d="M148.54,578.35c3.75-5,6.05-10.8,8.69-16.42a66.7,66.7,0,0,1,3.56-6.74l2-2.31c.34.29.67.58,1,.88a18.68,18.68,0,0,1,5-.14l2.18,9.92L171,554a18.85,18.85,0,1,1-10.08,36.29,2.76,2.76,0,0,1-1.13,1.09,2.7,2.7,0,0,1-3.7-3.47,18.84,18.84,0,0,1-2.41-2,19,19,0,0,1-11.31-1.67A26.59,26.59,0,0,0,148.54,578.35Z" transform="translate(-88.65 -57.09)" style="user-select: auto;"/></g><path d="M214.91,557.09a2.68,2.68,0,0,1,1.19-3.61,2.64,2.64,0,0,1,1.22-.29,18.85,18.85,0,0,1,5.89-10.5,18.71,18.71,0,0,1-.55-5.89l9.89-1.66-9.61-.61a18.65,18.65,0,0,1,.72-2.66,2.64,2.64,0,0,1-.89-1,2.7,2.7,0,0,1,3.32-3.75,18.63,18.63,0,0,1,6.87-5.93,18.84,18.84,0,0,1,26.77,21.5,2.69,2.69,0,0,1,.16,4.87,2.7,2.7,0,0,1-2.22.1A18.74,18.74,0,0,1,254.1,552a18.9,18.9,0,0,1-.87,12L240,560.52l11.83,6.23A18.86,18.86,0,0,1,219,565.21a19.11,19.11,0,0,1-1.94-6.65A2.67,2.67,0,0,1,214.91,557.09Z" transform="translate(-88.65 -57.09)" fill="#ffce63" style="user-select: auto;"/><path d="M214.91,557.09a2.68,2.68,0,0,1,1.19-3.61,2.64,2.64,0,0,1,1.22-.29,18.85,18.85,0,0,1,5.89-10.5c-.08-.31-.15-.63-.21-.94a7.27,7.27,0,0,1,1,.86c1.79,2,2.71,4.59,4.47,6.57a12.91,12.91,0,0,0,8.33,3.89,31.54,31.54,0,0,0,9.33-.75,27.35,27.35,0,0,1,7.72-.85l.74.1-.46.43a18.9,18.9,0,0,1-.87,12L240,560.52l11.83,6.23A18.86,18.86,0,0,1,219,565.21a19.11,19.11,0,0,1-1.94-6.65A2.67,2.67,0,0,1,214.91,557.09Z" transform="translate(-88.65 -57.09)" opacity="0.1" style="user-select: auto;"/></g><path d="M435,109a20.23,20.23,0,0,0-11.74,1.28,17.32,17.32,0,0,1-14.1,0,19.76,19.76,0,0,0-16.58.33,10.28,10.28,0,0,1-4.77,1.19c-6.72,0-12.31-6.77-13.47-15.7a13.07,13.07,0,0,0,3.36-3.62c3.94-6.35,10-10.43,16.89-10.43s12.89,4,16.83,10.31a13,13,0,0,0,11.16,6.14h.18C428.06,98.47,432.69,102.76,435,109Z" transform="translate(-88.65 -57.09)" fill="#ffce63" opacity="0.1" style="user-select: auto;"/><path d="M455.42,81l-10.86,6.89,6.59-12a10.74,10.74,0,0,0-6.57-2.34h-.17a12.89,12.89,0,0,1-2.25-.17l-3.69,2.34,1.58-2.87A13.19,13.19,0,0,1,433.61,68L427,72.13l4.16-7.57c-3.85-4.63-9.05-7.47-14.76-7.47-6.85,0-13,4.08-16.9,10.43a12.62,12.62,0,0,1-11.17,6H388c-7.56,0-13.7,8.57-13.7,19.16s6.14,19.15,13.7,19.15a10.28,10.28,0,0,0,4.77-1.19,19.72,19.72,0,0,1,16.58-.32,17.37,17.37,0,0,0,14.1,0,19.75,19.75,0,0,1,16.43.32,10.35,10.35,0,0,0,4.72,1.16c7.57,0,13.7-8.57,13.7-19.15A24.36,24.36,0,0,0,455.42,81Z" transform="translate(-88.65 -57.09)" fill="#ffce63" opacity="0.1" style="user-select: auto;"/><path d="M209,247.54a29,29,0,0,0-16.77,1.82,24.71,24.71,0,0,1-20.14-.05,28.22,28.22,0,0,0-23.68.47,14.75,14.75,0,0,1-6.82,1.7c-9.6,0-17.59-9.67-19.25-22.43a18.41,18.41,0,0,0,4.8-5.17c5.63-9.07,14.35-14.9,24.14-14.9s18.4,5.76,24,14.73a18.52,18.52,0,0,0,16,8.77h.25C199.11,232.47,205.73,238.6,209,247.54Z" transform="translate(-88.65 -57.09)" fill="#ffce63" opacity="0.1" style="user-select: auto;"/><path d="M238.2,207.49l-15.52,9.84,9.42-17.13a15.34,15.34,0,0,0-9.39-3.35h-.25a18.16,18.16,0,0,1-3.22-.24L214,200l2.26-4.1a18.7,18.7,0,0,1-9.2-7l-9.42,6L203.57,184c-5.51-6.61-12.93-10.66-21.09-10.66-9.79,0-18.51,5.82-24.14,14.89a18.05,18.05,0,0,1-16,8.61h-.53c-10.81,0-19.57,12.25-19.57,27.37s8.76,27.37,19.57,27.37a14.61,14.61,0,0,0,6.82-1.71,28.22,28.22,0,0,1,23.68-.46,24.71,24.71,0,0,0,20.14.05,28.25,28.25,0,0,1,23.48.45,14.65,14.65,0,0,0,6.74,1.67c10.81,0,19.57-12.26,19.57-27.37A34.76,34.76,0,0,0,238.2,207.49Z" transform="translate(-88.65 -57.09)" fill="#ffce63" opacity="0.1" style="user-select: auto;"/><path d="M836.62,148a20.24,20.24,0,0,1,11.74,1.28,17.29,17.29,0,0,0,14.09,0,19.76,19.76,0,0,1,16.58.33,10.31,10.31,0,0,0,4.77,1.19c6.72,0,12.32-6.77,13.48-15.7a12.93,12.93,0,0,1-3.36-3.62C890,125.11,883.87,121,877,121s-12.88,4-16.82,10.31A13,13,0,0,1,849,137.48h-.17C843.51,137.47,838.87,141.76,836.62,148Z" transform="translate(-88.65 -57.09)" fill="#ffce63" opacity="0.1" style="user-select: auto;"/><path d="M816.14,120,827,126.87l-6.6-12a10.76,10.76,0,0,1,6.57-2.34h.18a13,13,0,0,0,2.25-.17l3.68,2.34-1.58-2.87A13.21,13.21,0,0,0,838,107l6.59,4.18-4.17-7.57c3.86-4.63,9-7.47,14.77-7.47,6.85,0,13,4.08,16.9,10.43a12.61,12.61,0,0,0,11.17,6h.36c7.57,0,13.7,8.57,13.7,19.16s-6.13,19.15-13.7,19.15a10.34,10.34,0,0,1-4.77-1.19,19.72,19.72,0,0,0-16.58-.32,17.35,17.35,0,0,1-14.09,0,19.77,19.77,0,0,0-16.44.32,10.32,10.32,0,0,1-4.72,1.16c-7.56,0-13.7-8.57-13.7-19.15A24.36,24.36,0,0,1,816.14,120Z" transform="translate(-88.65 -57.09)" fill="#ffce63" opacity="0.1" style="user-select: auto;"/><path d="M 730.630005 756.880005 A 115 20 0 0 1 615.630005 776.880005 A 115 20 0 0 1 500.630005 756.880005 A 115 20 0 0 1 615.630005 736.880005 A 115 20 0 0 1 730.630005 756.880005 Z" fill="#ffce63" opacity="0.1" style="user-select: auto;"/><path d="M 555.4400024414062 661.8800048828125 L 377.25 659.5900268554688 L 377.7799987792969 655.02001953125 L 386.3900146484375 579.6300048828125 L 542.8800048828125 579.6300048828125 L 554.3900146484375 655.02001953125 L 555.27001953125 660.739990234375 L 555.4400024414062 661.8800048828125 Z" fill="#d0d2d5" style="user-select: auto;"/><path d="M 555.27001953125 660.739990234375 L 466.3500061035156 660.739990234375 L 377.25 659.5900268554688 L 377.7799987792969 655.02001953125 L 554.3900146484375 655.02001953125 L 555.27001953125 660.739990234375 Z" opacity="0.1" style="user-select: auto;"/><path d="M 347.549988 656.169983 H 583.999985 V 661.879983 H 347.549988 V 656.169983 Z" fill="#d0d2d5" style="user-select: auto;"/><path d="M898.24,183.92A14.87,14.87,0,0,0,883.44,169H223.12a14.87,14.87,0,0,0-14.8,14.94V584.19H898.24Z" transform="translate(-88.65 -57.09)" fill="#3f3d56" style="user-select: auto;"/><path d="M208.32,580.19v46.88a14.8,14.8,0,0,0,14.8,14.8H883.44a14.8,14.8,0,0,0,14.8-14.8V580.19Z" transform="translate(-88.65 -57.09)" fill="#d0d2d5" style="user-select: auto;"/><path d="M 148.229996 137.009995 H 784.459976 V 496.819992 H 148.229996 V 137.009995 Z" fill="#fff" style="user-select: auto;"/><path d="M556.71,624.08a15.4,15.4,0,0,0,12.13-5.89h0a16.06,16.06,0,0,0,1.2-1.76L561.57,615l9.15.06a15.42,15.42,0,0,0,.29-12.21l-12.27,6.36,11.32-8.32a15.42,15.42,0,1,0-25.47,17.26h0A15.4,15.4,0,0,0,556.71,624.08Z" transform="translate(-88.65 -57.09)" fill="#ffce63" style="user-select: auto;"/><path d="M 483.4800109863281 584.77001953125 L 554.5700073242188 656.1699829101562 L 543.6599731445312 584.77001953125 L 483.4800109863281 584.77001953125 Z" opacity="0.1" style="user-select: auto;"/><path d="M 147.729996 137.050003 H 784.649979 V 158.070004 H 147.729996 V 137.050003 Z" fill="#444053" opacity="0.1" style="user-select: auto;"/><path d="M 369.449995 140.710007 H 560.189989 A 0.58 0.58 0 0 1 560.769989 141.290007 V 152.920007 A 0.58 0.58 0 0 1 560.189989 153.500007 H 369.449995 A 0.58 0.58 0 0 1 368.869995 152.920007 V 141.290007 A 0.58 0.58 0 0 1 369.449995 140.710007 Z" fill="#ffce63" opacity="0.3" style="user-select: auto;"/><path d="M643.72,205.52h-.47l-.17-.15a3.89,3.89,0,0,0,.9-2.49,3.78,3.78,0,1,0-3.77,3.81,3.9,3.9,0,0,0,2.49-.91l.17.15v.47l2.93,2.93.87-.88Zm-3.51,0a2.64,2.64,0,1,1,2.63-2.64A2.62,2.62,0,0,1,640.21,205.52Z" transform="translate(-88.65 -57.09)" fill="#3f3d56" style="user-select: auto;"/><path d="M 163.029993 147.559998 A 3.85 3.85 0 0 1 159.179993 151.409997 A 3.85 3.85 0 0 1 155.329993 147.559998 A 3.85 3.85 0 0 1 159.179993 143.709998 A 3.85 3.85 0 0 1 163.029993 147.559998 Z" fill="#fa5959" opacity="0.8" style="user-select: auto;"/><path d="M 173.620004 147.559998 A 3.85 3.85 0 0 1 169.770004 151.409997 A 3.85 3.85 0 0 1 165.920004 147.559998 A 3.85 3.85 0 0 1 169.770004 143.709998 A 3.85 3.85 0 0 1 173.620004 147.559998 Z" fill="#fed253" opacity="0.8" style="user-select: auto;"/><path d="M 184.219995 147.559998 A 3.85 3.85 0 0 1 180.369995 151.409997 A 3.85 3.85 0 0 1 176.519995 147.559998 A 3.85 3.85 0 0 1 180.369995 143.709998 A 3.85 3.85 0 0 1 184.219995 147.559998 Z" fill="#8ccf4d" opacity="0.8" style="user-select: auto;"/><path d="M 845.399986 655.780029 A 32.290001 6.21 0 0 1 813.109985 661.990029 A 32.290001 6.21 0 0 1 780.819984 655.780029 A 32.290001 6.21 0 0 1 813.109985 649.570029 A 32.290001 6.21 0 0 1 845.399986 655.780029 Z" fill="#ffce63" style="user-select: auto;"/><path d="M 816.330007 653.140015 A 3.76 4.92 0 0 1 812.570007 658.060015 A 3.76 4.92 0 0 1 808.810007 653.140015 A 3.76 4.92 0 0 1 812.570007 648.220015 A 3.76 4.92 0 0 1 816.330007 653.140015 Z" fill="#3f3d56" style="user-select: auto;"/><path d="M 816.330007 647.119995 A 3.76 4.92 0 0 1 812.570007 652.039995 A 3.76 4.92 0 0 1 808.810007 647.119995 A 3.76 4.92 0 0 1 812.570007 642.199995 A 3.76 4.92 0 0 1 816.330007 647.119995 Z" fill="#3f3d56" style="user-select: auto;"/><path d="M 816.330007 641.109985 A 3.76 4.92 0 0 1 812.570007 646.029985 A 3.76 4.92 0 0 1 808.810007 641.109985 A 3.76 4.92 0 0 1 812.570007 636.189985 A 3.76 4.92 0 0 1 816.330007 641.109985 Z" fill="#3f3d56" style="user-select: auto;"/><path d="M 816.330007 635.090027 A 3.76 4.92 0 0 1 812.570007 640.010027 A 3.76 4.92 0 0 1 808.810007 635.090027 A 3.76 4.92 0 0 1 812.570007 630.170027 A 3.76 4.92 0 0 1 816.330007 635.090027 Z" fill="#3f3d56" style="user-select: auto;"/><path d="M 816.330007 629.070007 A 3.76 4.92 0 0 1 812.570007 633.990007 A 3.76 4.92 0 0 1 808.810007 629.070007 A 3.76 4.92 0 0 1 812.570007 624.150007 A 3.76 4.92 0 0 1 816.330007 629.070007 Z" fill="#3f3d56" style="user-select: auto;"/><path d="M 816.330007 623.059998 A 3.76 4.92 0 0 1 812.570007 627.979998 A 3.76 4.92 0 0 1 808.810007 623.059998 A 3.76 4.92 0 0 1 812.570007 618.139997 A 3.76 4.92 0 0 1 816.330007 623.059998 Z" fill="#3f3d56" style="user-select: auto;"/><path d="M 816.330007 617.039978 A 3.76 4.92 0 0 1 812.570007 621.959978 A 3.76 4.92 0 0 1 808.810007 617.039978 A 3.76 4.92 0 0 1 812.570007 612.119978 A 3.76 4.92 0 0 1 816.330007 617.039978 Z" fill="#3f3d56" style="user-select: auto;"/><path d="M915.29,633a18.19,18.19,0,0,0,1.4-2.06l-9.88-1.62,10.69.07a18.11,18.11,0,0,0,.34-14.27l-14.34,7.44,13.22-9.72A18,18,0,1,0,887,633a17.92,17.92,0,0,0-2.06,3.28l12.83,6.67-13.68-4.59A18,18,0,0,0,887,655.24a18,18,0,1,0,28.31,0,18,18,0,0,0,0-22.27Z" transform="translate(-88.65 -57.09)" fill="#ffce63" style="user-select: auto;"/><path d="M883.12,644.1A17.91,17.91,0,0,0,887,655.24a18,18,0,1,0,28.31,0C917.7,652.17,883.12,642.08,883.12,644.1Z" transform="translate(-88.65 -57.09)" opacity="0.1" style="user-select: auto;"/><path d="M 194.91 776.869995 A 46.490002 8.94 0 0 1 148.419998 785.809995 A 46.490002 8.94 0 0 1 101.929996 776.869995 A 46.490002 8.94 0 0 1 148.419998 767.929996 A 46.490002 8.94 0 0 1 194.91 776.869995 Z" fill="#ffce63" style="user-select: auto;"/><path d="M 153.049999 773.070007 A 5.41 7.09 0 0 1 147.639999 780.160007 A 5.41 7.09 0 0 1 142.23 773.070007 A 5.41 7.09 0 0 1 147.639999 765.980007 A 5.41 7.09 0 0 1 153.049999 773.070007 Z" fill="#3f3d56" style="user-select: auto;"/><path d="M 153.049999 764.409973 A 5.41 7.09 0 0 1 147.639999 771.499973 A 5.41 7.09 0 0 1 142.23 764.409973 A 5.41 7.09 0 0 1 147.639999 757.319973 A 5.41 7.09 0 0 1 153.049999 764.409973 Z" fill="#3f3d56" style="user-select: auto;"/><path d="M 153.049999 755.75 A 5.41 7.09 0 0 1 147.639999 762.84 A 5.41 7.09 0 0 1 142.23 755.75 A 5.41 7.09 0 0 1 147.639999 748.66 A 5.41 7.09 0 0 1 153.049999 755.75 Z" fill="#3f3d56" style="user-select: auto;"/><path d="M 153.049999 747.090027 A 5.41 7.09 0 0 1 147.639999 754.180027 A 5.41 7.09 0 0 1 142.23 747.090027 A 5.41 7.09 0 0 1 147.639999 740.000027 A 5.41 7.09 0 0 1 153.049999 747.090027 Z" fill="#3f3d56" style="user-select: auto;"/><path d="M 153.049999 738.429993 A 5.41 7.09 0 0 1 147.639999 745.519993 A 5.41 7.09 0 0 1 142.23 738.429993 A 5.41 7.09 0 0 1 147.639999 731.339993 A 5.41 7.09 0 0 1 153.049999 738.429993 Z" fill="#3f3d56" style="user-select: auto;"/><path d="M 153.049999 729.76001 A 5.41 7.09 0 0 1 147.639999 736.85001 A 5.41 7.09 0 0 1 142.23 729.76001 A 5.41 7.09 0 0 1 147.639999 722.67001 A 5.41 7.09 0 0 1 153.049999 729.76001 Z" fill="#3f3d56" style="user-select: auto;"/><path d="M 153.049999 721.099976 A 5.41 7.09 0 0 1 147.639999 728.189976 A 5.41 7.09 0 0 1 142.23 721.099976 A 5.41 7.09 0 0 1 147.639999 714.009975 A 5.41 7.09 0 0 1 153.049999 721.099976 Z" fill="#3f3d56" style="user-select: auto;"/><path d="M256.55,718.93a27.23,27.23,0,0,0,2-3l-14.22-2.34,15.38.12a26,26,0,0,0,.49-20.55L239.58,703.9l19-14a25.93,25.93,0,1,0-42.83,29,25.83,25.83,0,0,0-3,4.72l18.47,9.6-19.69-6.61A25.93,25.93,0,0,0,215.79,751a25.93,25.93,0,1,0,40.76,0,25.92,25.92,0,0,0,0-32.06Z" transform="translate(-88.65 -57.09)" fill="#ffce63" style="user-select: auto;"/><path d="M210.24,735a25.85,25.85,0,0,0,5.55,16,25.93,25.93,0,1,0,40.76,0C260,746.58,210.24,732.05,210.24,735Z" transform="translate(-88.65 -57.09)" opacity="0.1" style="user-select: auto;"/></g><g transform="matrix(1.4243373870849607, 0, 0, 1.4243373870849607, -201.25157481602741, 92.22195804362684)"><path d="M225.34292,702.60436c5.05211,17.52641,19.80364,29.79509,35.19135,40.21717q3.22281,2.18325,6.44766,4.266c.01457.00637.02957.02.04432.02649.10343.06645.20707.133.30345.19991.44371.286.88758.57223,1.32761.85495l-.24171.10858s-.23734.12621.02233.02024c.07728-.03233.15825-.06136.23537-.09387,8.93929-3.60536,18.03735-7.4764,24.888-14.23042,7.10651-7.0136,11.25952-18.01412,7.41141-27.228a17.5918,17.5918,0,0,0-1.90481-3.41886c-.31214-.44666-.64831-.87416-.99832-1.29373a18.85591,18.85591,0,0,0-32.3856,5.72979c-1.1305-10.52575,7.54879-19.34265,15.90135-25.84822,8.35623-6.50228,17.85126-13.58341,19.46674-24.05073.90215-5.82389-1.12306-11.46779-4.81223-15.99853-.11422-.13766-.22828-.27513-.34591-.409a27.51849,27.51849,0,0,0-17.68718-9.48885c-12.81321-1.33167-25.25927,5.4506-34.56778,14.35941C228.65693,660.66042,219.59966,682.67693,225.34292,702.60436Z" transform="translate(-213.45038 -150)" fill="#f1f1f1" style="user-select: auto;"/><path d="M249.42712,679.68a46.77976,46.77976,0,0,0-5.60443,12.36092,40.61933,40.61933,0,0,0-1.404,11.9968,52.04362,52.04362,0,0,0,6.81623,23.68461,74.90284,74.90284,0,0,0,11.29937,15.09919q3.22281,2.18325,6.44766,4.266c.01457.00637.02957.02.04432.02649.10343.06645.20707.133.30345.19991.44371.286.88758.57223,1.32761.85495,0,0-.479.23479-.21938.12882.07728-.03233.15825-.06136.23537-.09387a41.40487,41.40487,0,0,1,13.249-35.6508,41.75957,41.75957,0,0,1,17.14558-9.22645c-.31214-.44666-.64831-.87416-.99832-1.29373a43.29621,43.29621,0,0,0-7.14663,2.70436,42.424,42.424,0,0,0-19.1818,18.49347,43.37374,43.37374,0,0,0-4.72252,23.80133c-.3673-.33284-.735-.67291-1.09168-1.00976-6.79289-6.33309-12.82634-13.60244-16.90958-21.99188a48.41654,48.41654,0,0,1-5.06985-22.90746c.33325-8.65329,3.781-16.66846,8.77295-23.64613a101.345,101.345,0,0,1,19.2105-19.79843,115.15818,115.15818,0,0,1,23.89219-14.75057.828.828,0,0,0,.41668-1.06262.70421.70421,0,0,0-.34591-.409.613.613,0,0,0-.53243.02262c-1.0539.48517-2.10048.977-3.13867,1.49006a116.46492,116.46492,0,0,0-24.06247,15.87266C261.07753,664.88005,254.40949,671.77906,249.42712,679.68Z" transform="translate(-213.45038 -150)" fill="#fff" style="user-select: auto;"/><path d="M986.54962,458H634.89152V239.06926h351.6581Zm-343.47595-8.18215H978.36748V247.2514H643.07367Z" transform="translate(-213.45038 -150)" fill="#e5e5e5" style="user-select: auto;"/><path d="M 425.532135 93.160492 H 769.008148 V 303.908752 H 425.532135 V 93.160492 Z" fill="#fff" style="user-select: auto;"/><path d="M982.45855,296.5736V283.63369H934.81073V243.16048h-12.94v40.47321H837.04247V243.16048h-12.94v40.47321H693.26562V243.16048h-12.94v40.47321h-41.343V296.5736h41.343v50.322h-41.343v12.93992h41.343v53.91637h-41.343v12.93991h111.075v27.217h12.93962v-27.217h61.10521v27.217h12.94v-27.217H982.45855V413.75184H837.04247V359.83547H982.45855V346.89555H934.81073v-50.322Zm-158.35609,0v15.81546H693.26562V296.5736ZM693.26562,325.329H824.10246v21.56658H693.26562Zm0,88.42287V359.83547h56.792v53.91637Zm130.83684,0H762.99725V359.83547h61.10521Zm97.76826-66.85629H837.04247v-50.322h84.82825Z" transform="translate(-213.45038 -150)" fill="#e6e6e6" style="user-select: auto;"/><path d="M892.9978,212.0474c0,34.26782-62.0474,110.60623-62.0474,110.60623S768.903,246.31522,768.903,212.0474a62.0474,62.0474,0,0,1,124.0948,0Z" transform="translate(-213.45038 -150)" fill="#ffce63" style="user-select: auto;"/><path d="M859.31567,209.34968a28.36454,28.36454,0,1,1-28.36454-28.36454A28.35155,28.35155,0,0,1,859.31567,209.34968Z" transform="translate(-213.45038 -150)" fill="#fff" style="isolation: isolate; user-select: auto;"/><path d="M 634.225821 200.709824 A 16.725821 16.725821 0 0 1 617.5 217.435644 A 16.725821 16.725821 0 0 1 600.774179 200.709824 A 16.725821 16.725821 0 0 1 617.5 183.984003 A 16.725821 16.725821 0 0 1 634.225821 200.709824 Z" fill="#ffce63" style="user-select: auto;"/><path style="fill: rgb(47, 46, 65); fill-opacity: 1; stroke: rgb(0, 0, 0); stroke-opacity: 1; stroke-width: 0; paint-order: fill;" d="M 210.7394561767578 325.2759704589844 L 210.7394561767578 325.2759704589844"/></g></svg>